<svg width="34" height="18" viewBox="0 0 34 18" fill="none" xmlns="http://www.w3.org/2000/svg">
<path d="M16.7532 1.29287C17.1419 1.15155 17.516 1.00398 17.8974 0.879653C18.4237 0.707927 18.9601 0.567505 19.5075 0.471803C19.8082 0.419033 20.1108 0.370735 20.4134 0.330487C20.6499 0.298288 20.8883 0.283083 21.1258 0.256251C21.4091 0.224052 21.6934 0.218686 21.9785 0.21958C22.061 0.21958 22.1436 0.202587 22.2261 0.203481C22.4434 0.206164 22.6616 0.209742 22.8789 0.221369C23.121 0.234785 23.363 0.249096 23.6032 0.276822C23.9379 0.316176 24.2726 0.360897 24.6054 0.41635C24.9199 0.468226 25.2326 0.528151 25.5425 0.601492C25.8276 0.668573 26.1082 0.754436 26.3888 0.83851C26.8114 0.963727 27.2231 1.11757 27.6275 1.29019C28.0291 1.46191 28.4206 1.656 28.802 1.86887C29.2779 2.13361 29.7271 2.43682 30.1618 2.7597C30.3039 2.86524 30.4377 2.98241 30.5689 3.10047C30.7862 3.29455 31.0071 3.48685 31.2107 3.69346C31.4032 3.88844 31.5802 4.09863 31.7553 4.30881C31.8983 4.48054 32.0368 4.65674 32.1642 4.84009C32.2917 5.02255 32.4072 5.21395 32.5209 5.40536C32.6016 5.54041 32.674 5.67994 32.7446 5.82036C32.994 6.31497 33.1912 6.82836 33.3149 7.36679C33.3617 7.57251 33.4075 7.77911 33.4433 7.98751C33.4671 8.12525 33.4745 8.26567 33.4836 8.4052C33.4983 8.62254 33.5203 8.84078 33.5176 9.05901C33.5139 9.29782 33.4855 9.53752 33.4662 9.77633C33.4305 10.2155 33.3314 10.643 33.2012 11.0634C33.1187 11.3281 33.0096 11.5857 32.9051 11.8433C32.8464 11.9882 32.7804 12.1313 32.7061 12.2699C32.4521 12.7475 32.1624 13.2028 31.8186 13.6241C31.6829 13.7895 31.5435 13.9523 31.3959 14.1079C31.1933 14.3217 30.9897 14.5346 30.7715 14.7331C30.5643 14.9219 30.336 15.0891 30.1196 15.2689C29.8482 15.4934 29.5502 15.6821 29.2522 15.8699C28.8891 16.0989 28.5086 16.2983 28.1208 16.4871C27.6697 16.7062 27.2057 16.8904 26.7326 17.055C26.2842 17.2106 25.8267 17.3403 25.3637 17.4432C25.0593 17.5112 24.7512 17.5621 24.4431 17.6131C24.1956 17.6543 23.9462 17.6874 23.6968 17.7205C23.5959 17.7339 23.4932 17.7348 23.3914 17.741C23.1338 17.7589 22.8761 17.7804 22.6176 17.7929C22.4443 17.801 22.2701 17.7992 22.0968 17.7938C21.8382 17.7857 21.5797 17.7714 21.3202 17.7598C21.1992 17.7544 21.0772 17.7509 20.9562 17.7401C20.8168 17.7276 20.6784 17.7079 20.539 17.6909C20.3877 17.6722 20.2346 17.657 20.0842 17.631C19.7578 17.5747 19.4296 17.5255 19.1077 17.4494C18.6869 17.3493 18.2679 17.2375 17.8543 17.1087C17.5261 17.0067 17.207 16.8743 16.8861 16.7518C16.7972 16.7178 16.7211 16.7142 16.6294 16.7518C16.1902 16.9334 15.7418 17.0899 15.2852 17.2241C14.8359 17.3564 14.3812 17.4655 13.9209 17.5523C13.6678 17.5997 13.4111 17.631 13.1553 17.6668C12.9728 17.6927 12.7904 17.716 12.607 17.7383C12.5217 17.7482 12.4355 17.7544 12.3493 17.758C12.177 17.7652 12.0037 17.7714 11.8313 17.7759C11.5333 17.7831 11.2353 17.7947 10.9373 17.792C10.7044 17.7902 10.4706 17.7732 10.2387 17.7571C10.0516 17.7437 9.86456 17.7249 9.67844 17.7026C9.49231 17.6802 9.30618 17.6552 9.12097 17.623C8.81656 17.5702 8.51215 17.5147 8.2105 17.4512C7.97669 17.402 7.74563 17.343 7.51549 17.2804C7.30644 17.2232 7.09647 17.165 6.89293 17.0908C6.52158 16.9548 6.15208 16.8153 5.78807 16.6624C5.51484 16.5479 5.24711 16.4182 4.98579 16.2805C4.6117 16.0837 4.24403 15.8744 3.90111 15.6275C3.66731 15.4594 3.43167 15.293 3.20153 15.1195C3.09058 15.0354 2.98697 14.9415 2.8852 14.8467C2.65139 14.6285 2.413 14.4138 2.1902 14.184C1.91971 13.9058 1.6694 13.6098 1.45027 13.2905C1.29531 13.0651 1.13852 12.8406 1.00099 12.6053C0.835951 12.3236 0.691082 12.0311 0.565469 11.7288C0.405013 11.3433 0.271147 10.9516 0.183125 10.5455C0.13178 10.3058 0.0969379 10.0616 0.0584285 9.81926C0.00341509 9.46954 -0.00758759 9.11715 0.00433198 8.76475C0.0107502 8.56977 0.0391738 8.37479 0.0575116 8.17981C0.0905196 7.83814 0.160203 7.50274 0.250975 7.17181C0.349999 6.80958 0.481115 6.45897 0.633318 6.11462C0.802026 5.73181 1.00283 5.36511 1.23847 5.01897C1.42918 4.73902 1.63181 4.46533 1.84545 4.20148C2.10309 3.88218 2.39466 3.58971 2.69999 3.31244C3.07683 2.96988 3.47751 2.65505 3.90295 2.37063C4.2697 2.12467 4.6493 1.90017 5.04172 1.69446C5.51942 1.44402 6.01363 1.23205 6.51975 1.04333C7.01029 0.860871 7.50999 0.709716 8.0207 0.594337C8.40579 0.506685 8.79364 0.435133 9.18332 0.368052C9.3997 0.330487 9.61976 0.312599 9.83798 0.292027C10.0699 0.269667 10.3019 0.251779 10.5339 0.237468C10.7191 0.226736 10.9052 0.224947 11.0904 0.217791C11.1766 0.214214 11.2628 0.199903 11.3481 0.201692C11.5654 0.204375 11.7836 0.207953 12.0009 0.220475C12.2366 0.232996 12.4722 0.250885 12.7069 0.275928C12.9251 0.298288 13.1424 0.334064 13.3598 0.360897C13.8824 0.425294 14.3949 0.537095 14.9038 0.669467C15.3366 0.782163 15.7629 0.913641 16.1801 1.07374C16.3736 1.14798 16.567 1.22042 16.7559 1.29198L16.7532 1.29287ZM17.251 16.2456C17.2648 16.2545 17.2795 16.2679 17.2969 16.2733C17.5133 16.3413 17.7269 16.4155 17.946 16.4728C18.1863 16.5345 18.4302 16.5837 18.6786 16.6024C18.8638 16.6168 19.0472 16.6481 19.2324 16.6516C19.5588 16.6579 19.8862 16.657 20.2126 16.6212C20.473 16.5926 20.7306 16.555 20.9855 16.4969C21.4678 16.3869 21.9318 16.2295 22.3618 15.9853C22.6809 15.8046 22.9788 15.5971 23.231 15.3279C23.4364 15.1088 23.5996 14.8646 23.7316 14.5981C23.9113 14.2358 24.0003 13.8512 24.0278 13.4541C24.0388 13.2869 24.0213 13.1169 24.0131 12.9488C24.0012 12.7207 23.9526 12.4989 23.8875 12.2798C23.7527 11.8254 23.5299 11.4158 23.2108 11.0625C22.9541 10.779 22.6616 10.5303 22.3407 10.3139C21.8804 10.0017 21.389 9.74681 20.8727 9.53931C20.3969 9.34791 19.9155 9.17081 19.4351 8.98925C19.1307 8.87476 18.8235 8.76922 18.5209 8.64937C18.0937 8.48122 17.6682 8.3086 17.2639 8.09126C17.0814 7.99288 16.9008 7.8936 16.7211 7.78985C16.3727 7.5895 16.0563 7.34622 15.7611 7.077C15.5695 6.90259 15.409 6.70135 15.2568 6.49206C15.1055 6.28366 14.9707 6.06722 14.8735 5.83378C14.6847 5.37763 14.5691 4.90449 14.6177 4.40451C14.6342 4.23726 14.6553 4.07179 14.6938 3.90722C14.7718 3.57271 14.9038 3.25967 15.0817 2.96452C15.21 2.75165 15.3476 2.54415 15.5236 2.36526C15.6831 2.20338 15.8482 2.04596 16.0123 1.88855C16.0802 1.82415 16.1535 1.76601 16.225 1.70519C16.214 1.69088 16.2104 1.67925 16.203 1.67657C16.159 1.65868 16.1141 1.64079 16.0692 1.62559C15.7336 1.51379 15.3907 1.42703 15.0367 1.39483C14.8048 1.37337 14.5728 1.3519 14.3399 1.34385C14.1804 1.33759 14.0199 1.3519 13.8604 1.35995C13.666 1.36979 13.4707 1.37784 13.2772 1.39752C13.0462 1.42077 12.816 1.4485 12.5868 1.48785C12.0513 1.57997 11.537 1.7356 11.0574 1.98961C10.798 2.12735 10.5541 2.28835 10.3386 2.48512C10.0461 2.75254 9.8178 3.06469 9.65643 3.42603C9.50789 3.75786 9.40887 4.10399 9.38687 4.46176C9.36669 4.7748 9.37128 5.09052 9.43179 5.40446C9.53082 5.91249 9.74354 6.36506 10.0663 6.77022C10.257 7.00992 10.4825 7.21921 10.7228 7.41062C11.0932 7.70667 11.4985 7.95084 11.9257 8.16103C12.143 8.26836 12.364 8.36942 12.5896 8.45797C13.0783 8.65116 13.5706 8.8363 14.0621 9.02234C14.339 9.12788 14.6205 9.22358 14.8955 9.33359C15.1944 9.45344 15.4879 9.58582 15.784 9.71193C16.1012 9.84698 16.4029 10.0125 16.6945 10.194C16.9613 10.3604 17.2254 10.5321 17.4546 10.7468C17.6435 10.9247 17.8415 11.0965 18.0065 11.2941C18.2073 11.5356 18.3751 11.8031 18.5072 12.0902C18.6896 12.4882 18.7905 12.9032 18.8052 13.337C18.8107 13.4854 18.785 13.6348 18.774 13.7842C18.7566 14.0221 18.6933 14.2493 18.6117 14.4729C18.4311 14.9639 18.1413 15.3878 17.7737 15.7617C17.6095 15.9281 17.4307 16.081 17.2501 16.2474L17.251 16.2456ZM30.313 3.81868C30.269 3.77217 30.2397 3.73639 30.2048 3.70598C30.1379 3.64874 30.0682 3.59329 29.9985 3.53962C29.7547 3.35359 29.5181 3.15771 29.2641 2.98598C28.9836 2.79637 28.6892 2.62464 28.3958 2.45202C28.0052 2.22305 27.5917 2.03702 27.1718 1.86529C26.7702 1.70161 26.3594 1.56388 25.9422 1.44134C25.7708 1.39125 25.6002 1.3367 25.4196 1.33759C25.0098 1.34117 24.599 1.31612 24.1901 1.37247C23.992 1.4002 23.7912 1.41361 23.5941 1.45118C23.1732 1.52989 22.7606 1.63632 22.3645 1.80089C22.039 1.93595 21.7282 2.09426 21.4449 2.29997C21.2386 2.44934 21.0506 2.61838 20.8856 2.80978C20.704 3.02087 20.5592 3.2552 20.4473 3.51011C20.3098 3.82583 20.23 4.15587 20.2117 4.49664C20.2007 4.70235 20.2199 4.90896 20.2263 5.11467C20.2337 5.34096 20.2869 5.55919 20.3584 5.77206C20.5243 6.26757 20.804 6.69599 21.1781 7.06538C21.2413 7.12709 21.3083 7.18523 21.378 7.24068C21.5366 7.36679 21.6906 7.49827 21.8584 7.61186C22.2472 7.8775 22.6598 8.10468 23.0953 8.28982C23.4061 8.4213 23.716 8.55546 24.0314 8.67799C24.4119 8.82557 24.7989 8.95615 25.1794 9.10194C25.5874 9.25846 25.9945 9.41677 26.3961 9.58671C26.8334 9.77275 27.258 9.98651 27.6586 10.2423C28.0016 10.4614 28.3188 10.711 28.604 10.9999C28.7644 11.1627 28.9102 11.3353 29.0422 11.5195C29.2513 11.812 29.3998 12.1331 29.4998 12.4739C29.5447 12.6259 29.5814 12.7824 29.597 12.9398C29.6171 13.1384 29.619 13.3396 29.6153 13.5391C29.6125 13.675 29.596 13.8128 29.5713 13.9469C29.5089 14.2868 29.3934 14.6106 29.2238 14.9138C29.2045 14.9478 29.1917 14.9845 29.1752 15.0202C29.1816 15.0274 29.1889 15.0345 29.1954 15.0408C29.2293 15.0247 29.2669 15.0131 29.2962 14.9916C29.4915 14.8458 29.6905 14.7045 29.8784 14.5498C30.104 14.3655 30.324 14.1741 30.5377 13.9774C30.6715 13.853 30.7889 13.7108 30.9145 13.5776C31.1547 13.3218 31.3702 13.0481 31.5683 12.7601C31.8158 12.4014 32.035 12.0284 32.2128 11.6322C32.3724 11.2771 32.5062 10.9131 32.5933 10.5357C32.6465 10.3058 32.686 10.0724 32.7254 9.83983C32.7492 9.69583 32.7657 9.55004 32.7776 9.40425C32.785 9.31213 32.7795 9.21822 32.7795 9.12251H30.0967C30.0581 9.86219 29.9518 10.5822 29.7042 11.2923C29.5795 11.1242 29.4658 10.9713 29.3549 10.8219C29.5025 10.2602 29.5988 9.69851 29.6144 9.11446H29.4842C28.6553 9.11446 27.8255 9.11446 26.9967 9.11357C26.9499 9.11357 26.9004 9.10731 26.8573 9.08942C26.5712 8.97315 26.2861 8.8533 26.0009 8.73434C25.9422 8.71019 25.8845 8.68425 25.8258 8.65921C25.868 8.65563 25.9111 8.65206 25.9532 8.64848C25.9468 8.18875 25.9092 7.65121 25.8065 7.05822C25.7048 6.46791 25.5617 5.95094 25.4141 5.51626C25.3783 5.51984 25.3508 5.52252 25.3352 5.52431C25.1335 5.54488 25.0208 5.5583 24.8502 5.57529C24.7704 5.58334 24.6916 5.5896 24.6118 5.59586C24.4184 5.61286 24.224 5.63254 24.0305 5.64595C23.8902 5.65579 23.749 5.65758 23.6078 5.66384C23.3392 5.67547 23.0705 5.68888 22.8028 5.69872C22.6396 5.70498 22.4746 5.69962 22.4746 5.69962C22.436 5.69962 22.404 5.69962 22.381 5.69872C22.381 6.18081 22.3801 6.662 22.3792 7.14408V7.17986C22.216 7.05554 22.0546 6.93032 21.8923 6.806V5.70677C21.6099 5.69693 21.3394 5.68709 21.0552 5.67636C21.0139 5.52431 20.9745 5.37495 20.9333 5.2229C20.9589 5.21664 20.9709 5.21127 20.9828 5.21127C21.2835 5.21932 21.5833 5.22826 21.8987 5.23721V3.11746H22.3829V5.24615C22.4104 5.24615 22.4498 5.24615 22.4984 5.24615C22.8349 5.24436 23.0861 5.23452 23.2768 5.22737C23.4877 5.21842 23.8242 5.20233 24.1956 5.1737C24.3001 5.16566 24.3927 5.15761 24.4339 5.15403C24.6054 5.13793 24.7759 5.12183 24.9474 5.10394C25.0473 5.09321 25.1464 5.07979 25.2573 5.06548C24.9291 4.25068 24.4899 3.52442 23.8673 2.90549C24.0369 2.85987 24.191 2.81873 24.3569 2.77401C24.9722 3.42514 25.4049 4.18628 25.7341 5.01361C26.5694 4.89912 27.3882 4.74886 28.2024 4.53241C27.5019 3.55304 26.6116 2.80263 25.5351 2.24362C25.6782 2.16581 25.8212 2.088 25.9633 2.01018C26.0275 2.04059 26.1311 2.09068 26.2567 2.15776C26.5382 2.30892 27.1589 2.67026 27.7668 3.28919C27.897 3.42156 27.975 3.50474 28.0804 3.63085C28.3243 3.92332 28.4032 4.07806 28.6186 4.29897C28.6571 4.33833 28.6883 4.36784 28.7021 4.38126C28.7754 4.3589 28.8809 4.32759 29.0065 4.28824C29.1138 4.25515 29.3531 4.18002 29.5493 4.11294C29.7345 4.04943 29.9949 3.95463 30.313 3.81689V3.81868ZM9.23833 15.209C8.90917 14.8727 8.6231 14.5051 8.37554 14.1053C8.12889 13.7064 7.92809 13.2851 7.74472 12.8433C6.92043 12.9524 6.11357 13.108 5.30396 13.3137C5.31587 13.3468 5.31954 13.379 5.33696 13.4014C5.62212 13.7663 5.91644 14.124 6.27586 14.4255C6.59494 14.6929 6.75356 14.8279 6.79207 14.8584C7.15699 15.1401 7.49899 15.3556 7.83549 15.5685C7.93176 15.6293 8.01153 15.6785 8.06379 15.7107C7.92076 15.7885 7.77864 15.8672 7.63561 15.9451C7.13773 15.6848 6.75998 15.4281 6.49683 15.2304C6.16583 14.9818 5.94211 14.7689 5.87885 14.7126C5.7514 14.599 5.63404 14.4738 5.52034 14.3459C5.34522 14.1482 5.17651 13.9443 5.00688 13.7421C4.93078 13.6509 4.86018 13.5552 4.78775 13.4631C4.21286 13.6321 3.65814 13.8289 3.12267 14.0713C3.11992 14.1419 3.1731 14.1706 3.21161 14.2045C3.33539 14.3128 3.46009 14.4201 3.59029 14.5203C3.82593 14.7018 4.06065 14.8843 4.30455 15.0533C4.63279 15.2823 4.97571 15.4898 5.33605 15.6678C5.71931 15.8565 6.10532 16.0417 6.50233 16.2C6.87275 16.3484 7.24684 16.5005 7.65486 16.5363C7.87675 16.5559 8.09772 16.5935 8.31961 16.6016C8.64694 16.6132 8.97518 16.6096 9.30159 16.5631C9.46939 16.5389 9.63809 16.5202 9.80588 16.5032C10.1506 16.4674 10.4853 16.3833 10.8145 16.2805C11.2408 16.1472 11.6378 15.954 12.0018 15.6991C12.1962 15.5631 12.3658 15.3995 12.5217 15.226C12.7298 14.9943 12.883 14.7278 13.0058 14.4433C13.1553 14.0981 13.2314 13.7359 13.258 13.3656C13.2772 13.1008 13.2543 12.8361 13.2057 12.5731C13.1342 12.185 12.9939 11.8218 12.7849 11.4855C12.5648 11.1322 12.2787 10.8335 11.9551 10.5706C11.6002 10.2817 11.206 10.0482 10.797 9.84072C10.3854 9.63143 9.959 9.45345 9.52532 9.29066C9.13105 9.14309 8.73954 8.99104 8.34161 8.8533C7.87675 8.6923 7.4183 8.51611 6.97269 8.31308C6.49958 8.09752 6.03563 7.86408 5.6102 7.56446C5.25903 7.3167 4.93353 7.04481 4.6548 6.71745C4.41732 6.4384 4.22569 6.13609 4.08449 5.80158C3.83968 5.22379 3.83326 4.72918 3.83326 4.58161C3.83326 4.21311 3.90386 3.92153 3.94054 3.76948C4.00839 3.48596 4.09825 3.25967 4.12759 3.18901C4.15051 3.13356 4.17068 3.08795 4.18535 3.05485C4.10008 3.1112 3.99005 3.18723 3.86352 3.28024C3.7755 3.34464 3.52152 3.53247 3.21895 3.80973C2.90629 4.09684 2.61013 4.39915 2.34332 4.72918C2.05175 5.09052 1.78585 5.46707 1.56396 5.87224C1.33474 6.29171 1.14586 6.72819 1.00833 7.18612C0.866208 7.66016 0.787356 8.14314 0.744262 8.63327C0.741511 8.66994 0.744262 8.70661 0.744262 8.74776H3.38766C3.41516 7.9893 3.53344 7.2541 3.78008 6.52694C3.89836 6.67899 4.01664 6.83104 4.13584 6.98309C4.12575 7.01976 4.11016 7.07969 4.09183 7.15482C4.02948 7.4133 3.93596 7.8614 3.89745 8.43382C3.89194 8.50895 3.88644 8.61986 3.88278 8.75491C3.88553 8.75491 4.00839 8.75491 4.01114 8.75491C4.76666 8.75491 5.80274 8.75491 6.52525 8.75402C6.86267 8.90249 7.20008 9.05096 7.53658 9.19854C7.54117 9.65916 7.57693 10.1931 7.67228 10.7807C7.76856 11.3755 7.90609 11.8997 8.04912 12.3433C8.09588 12.3388 8.16098 12.3325 8.21141 12.3272C9.09621 12.2413 9.28692 12.2279 9.3832 12.2225C9.51523 12.2145 9.55282 12.2127 9.70869 12.2029C9.89666 12.1912 10.0846 12.1751 10.2726 12.168C10.5917 12.1563 10.8466 12.151 11.0602 12.1483C11.0822 12.1483 11.1005 12.1483 11.1097 12.1483C11.1115 11.6698 11.1143 11.1913 11.1161 10.7128C11.2766 10.8344 11.4379 10.956 11.5984 11.0777V12.1483C11.8927 12.1608 12.177 12.1733 12.4612 12.185C12.5089 12.3388 12.5575 12.4935 12.6051 12.6474C12.4346 12.642 12.265 12.6366 12.0944 12.6313C11.9267 12.6295 11.7579 12.6277 11.5902 12.6268V14.912H11.1042V12.6769C11.0822 12.6554 11.0703 12.6438 11.0474 12.6223C10.7677 12.6268 10.5284 12.634 10.3413 12.6402C10.1185 12.6483 9.88015 12.659 9.56474 12.676C9.40245 12.6849 9.24016 12.6984 9.07787 12.7109C8.85507 12.7288 8.63227 12.7458 8.41038 12.7663C8.35445 12.7717 8.29943 12.7851 8.22975 12.7967C8.3086 13.0194 8.40304 13.227 8.51032 13.4273C8.61759 13.6294 8.73312 13.828 8.85965 14.0194C8.98527 14.2099 9.12005 14.3977 9.26767 14.5721C9.41437 14.7466 9.58308 14.904 9.75087 15.0784C9.57483 15.1231 9.41529 15.1642 9.23741 15.209H9.23833ZM3.38857 9.21553H0.741511C0.763517 9.94 0.911136 10.6323 1.17062 11.2986C1.52178 12.202 2.05266 12.9971 2.733 13.718C2.93746 13.6634 3.12084 13.5507 3.31981 13.4783C3.51694 13.4067 3.71223 13.3289 3.91028 13.2583C4.11016 13.1867 4.3128 13.1205 4.5301 13.0454C4.17893 12.4569 3.89836 11.846 3.70765 11.2002C3.51694 10.5554 3.40783 9.89618 3.38857 9.21643V9.21553ZM29.6162 8.63953C29.5704 7.30329 29.1908 6.07885 28.4875 4.9501C28.2711 4.9993 28.0575 5.04938 27.8457 5.09768C27.7925 5.1102 27.4597 5.18444 27.2112 5.23631C26.915 5.29892 26.4777 5.38389 25.9019 5.47244C25.9065 5.48854 25.9156 5.51537 25.9257 5.54846C25.9257 5.54846 25.9826 5.73003 26.0257 5.88029C26.1265 6.23716 26.21 6.5976 26.2677 6.96341C26.298 7.15661 26.3282 7.35069 26.3539 7.54478C26.3713 7.68252 26.3787 7.78448 26.3943 7.97231C26.408 8.13688 26.4254 8.36495 26.4429 8.63864H29.6162V8.63953ZM7.57692 12.3934C7.42105 11.8675 7.28535 11.3505 7.19917 10.8228C7.11206 10.2906 7.07447 9.75397 7.05063 9.21374H3.88186C3.88003 9.25041 3.87636 9.28082 3.87636 9.31213C3.87452 9.61176 3.92037 9.90691 3.9653 10.203C4.01481 10.5294 4.09641 10.8487 4.19452 11.1644C4.35406 11.6769 4.56586 12.168 4.83451 12.6357C4.88677 12.727 4.94637 12.8155 5.0078 12.9139C5.85592 12.6921 6.70496 12.5168 7.57784 12.3943L7.57692 12.3934ZM28.9707 4.80163C29.1238 5.10841 29.277 5.40804 29.4227 5.71124C29.5694 6.01624 29.6868 6.33375 29.7757 6.65842C29.8647 6.9822 29.9435 7.31044 29.9985 7.64138C30.0536 7.97141 30.0728 8.30592 30.1086 8.63864H32.7639C32.7419 7.93653 32.575 7.27198 32.3183 6.62891C31.9497 5.70498 31.3895 4.89823 30.689 4.18091C30.6761 4.18002 30.6605 4.17376 30.6505 4.17823C30.1012 4.4072 29.5502 4.62812 28.9698 4.80253L28.9707 4.80163Z" fill="#314381"/>
</svg>
