<svg width="58" height="32" viewBox="0 0 58 32" fill="none" xmlns="http://www.w3.org/2000/svg">
<path d="M28.9901 2.66337C29.6628 2.41883 30.3101 2.16346 30.9701 1.94833C31.8809 1.65117 32.809 1.40818 33.7562 1.24258C34.2766 1.15126 34.8002 1.06768 35.3238 0.998038C35.7331 0.942321 36.1457 0.91601 36.5566 0.869579C37.0469 0.813861 37.5387 0.804575 38.0321 0.806123C38.1749 0.806123 38.3177 0.776717 38.4605 0.778264C38.8365 0.782907 39.2142 0.789098 39.5902 0.809218C40.009 0.832434 40.4279 0.857197 40.8436 0.905176C41.4227 0.973275 42.0018 1.05066 42.5778 1.14662C43.122 1.23638 43.663 1.34008 44.1993 1.46699C44.6927 1.58307 45.1782 1.73165 45.6637 1.87713C46.3951 2.09381 47.1075 2.36002 47.8072 2.65872C48.5022 2.95588 49.1796 3.29174 49.8397 3.66009C50.6631 4.11821 51.4406 4.64288 52.1926 5.2016C52.4385 5.38423 52.6702 5.58698 52.8971 5.79128C53.2731 6.12713 53.6555 6.45989 54.0077 6.81741C54.3409 7.1548 54.6471 7.51852 54.9501 7.88223C55.1976 8.17939 55.4372 8.48428 55.6578 8.80156C55.8783 9.11729 56.0782 9.4485 56.275 9.77971C56.4146 10.0134 56.5399 10.2549 56.6621 10.4978C57.0936 11.3537 57.4348 12.2421 57.649 13.1738C57.7299 13.5298 57.8092 13.8873 57.8711 14.2479C57.9123 14.4863 57.925 14.7293 57.9409 14.9707C57.9663 15.3468 58.0044 15.7244 57.9996 16.1021C57.9932 16.5153 57.9441 16.9301 57.9107 17.3433C57.8489 18.1033 57.6775 18.8431 57.4522 19.5705C57.3094 20.0286 57.1206 20.4743 56.9397 20.9201C56.8382 21.1708 56.724 21.4184 56.5954 21.6583C56.156 22.4848 55.6546 23.2726 55.0596 24.0016C54.8248 24.2879 54.5836 24.5696 54.3282 24.8389C53.9775 25.2088 53.6253 25.5771 53.2477 25.9207C52.8891 26.2473 52.4941 26.5367 52.1196 26.8478C51.65 27.2363 51.1343 27.5628 50.6187 27.8878C49.9904 28.2841 49.332 28.6292 48.6608 28.9558C47.8802 29.335 47.0774 29.6538 46.2587 29.9386C45.4828 30.2079 44.6911 30.4323 43.8899 30.6103C43.3631 30.7279 42.83 30.8161 42.2969 30.9043C41.8686 30.9755 41.437 31.0328 41.0054 31.09C40.8309 31.1133 40.6532 31.1148 40.4771 31.1256C40.0313 31.1566 39.5854 31.1937 39.138 31.2154C38.8381 31.2293 38.5367 31.2262 38.2368 31.217C37.7894 31.203 37.342 31.1783 36.893 31.1581C36.6835 31.1489 36.4725 31.1427 36.2631 31.1241C36.0219 31.1024 35.7823 31.0684 35.5412 31.039C35.2794 31.0065 35.0144 30.9802 34.7542 30.9353C34.1894 30.8378 33.6214 30.7526 33.0645 30.6211C32.3362 30.4478 31.6111 30.2543 30.8956 30.0314C30.3276 29.855 29.7754 29.6259 29.2201 29.4139C29.0662 29.3551 28.9345 29.3489 28.7759 29.4139C28.0159 29.7281 27.24 29.9989 26.4499 30.2311C25.6725 30.4601 24.8855 30.649 24.089 30.7991C23.6511 30.8811 23.2069 30.9353 22.7642 30.9972C22.4485 31.0421 22.1327 31.0823 21.8154 31.121C21.6679 31.138 21.5187 31.1489 21.3696 31.1551C21.0713 31.1674 20.7714 31.1783 20.4731 31.186C19.9575 31.1984 19.4419 31.2185 18.9262 31.2139C18.5232 31.2108 18.1186 31.1814 17.7172 31.1535C17.3935 31.1303 17.0699 31.0978 16.7478 31.0591C16.4257 31.0204 16.1036 30.9771 15.7831 30.9213C15.2564 30.83 14.7296 30.7341 14.2076 30.6242C13.8031 30.5391 13.4032 30.4369 13.005 30.3286C12.6432 30.2295 12.2799 30.1289 11.9277 30.0005C11.2851 29.7652 10.6457 29.5238 10.0158 29.2591C9.54301 29.061 9.07972 28.8366 8.62754 28.5982C7.9802 28.2577 7.34397 27.8956 6.75058 27.4684C6.34599 27.1775 5.93824 26.8896 5.54 26.5893C5.34802 26.4438 5.16873 26.2813 4.99262 26.1173C4.58803 25.7396 4.17551 25.3682 3.78997 24.9704C3.32192 24.4891 2.88878 23.9768 2.50958 23.4243C2.24144 23.0342 1.97013 22.6458 1.73214 22.2387C1.44655 21.7512 1.19587 21.2451 0.9785 20.722C0.700844 20.0549 0.469199 19.377 0.316885 18.6744C0.228035 18.2596 0.167744 17.8371 0.101106 17.4176C0.00590954 16.8125 -0.0131297 16.2027 0.00749616 15.5929C0.0186024 15.2555 0.0677872 14.9181 0.0995194 14.5807C0.156637 13.9895 0.277219 13.4091 0.434294 12.8364C0.605647 12.2096 0.832532 11.6029 1.09591 11.007C1.38784 10.3446 1.73531 9.71006 2.14307 9.1111C2.47308 8.62667 2.82372 8.15307 3.1934 7.6965C3.63924 7.14397 4.14378 6.63787 4.67212 6.15808C5.32422 5.56531 6.01757 5.02052 6.75375 4.52835C7.38839 4.10273 8.04525 3.71426 8.72432 3.35829C9.55094 2.92493 10.4061 2.55812 11.2819 2.23156C12.1308 1.91583 12.9955 1.65426 13.8792 1.45461C14.5456 1.30294 15.2167 1.17912 15.891 1.06304C16.2655 0.998038 16.6463 0.967084 17.0239 0.931487C17.4253 0.892794 17.8267 0.86184 18.2281 0.837077C18.5486 0.818505 18.8707 0.815409 19.1912 0.803028C19.3403 0.796837 19.4895 0.772073 19.637 0.775169C20.013 0.779812 20.3906 0.786003 20.7667 0.807671C21.1744 0.829339 21.5822 0.860293 21.9884 0.903628C22.366 0.942321 22.742 1.00423 23.118 1.05066C24.0224 1.16209 24.9093 1.35556 25.7899 1.58462C26.5388 1.77963 27.2765 2.00714 27.9984 2.28418C28.3332 2.41264 28.668 2.538 28.9948 2.66182L28.9901 2.66337ZM29.8516 28.5379C29.8754 28.5534 29.9008 28.5766 29.9309 28.5859C30.3054 28.7035 30.675 28.8319 31.0542 28.931C31.4699 29.0378 31.892 29.1229 32.3219 29.1554C32.6424 29.1802 32.9598 29.2344 33.2802 29.2405C33.8451 29.2514 34.4115 29.2498 34.9763 29.1879C35.4269 29.1384 35.8728 29.0734 36.3138 28.9728C37.1484 28.7824 37.9512 28.51 38.6953 28.0875C39.2475 27.7749 39.7631 27.4158 40.1994 26.9499C40.5548 26.5708 40.8373 26.1482 41.0657 25.687C41.3767 25.0602 41.5306 24.3947 41.5782 23.7075C41.5972 23.4181 41.5671 23.124 41.5528 22.833C41.5322 22.4384 41.4481 22.0546 41.3355 21.6754C41.1022 20.8891 40.7167 20.1803 40.1645 19.5689C39.7203 19.0783 39.2142 18.6481 38.6588 18.2735C37.8624 17.7334 37.0119 17.2923 36.1187 16.9332C35.2952 16.602 34.4623 16.2955 33.6309 15.9814C33.1041 15.7833 32.5726 15.6006 32.049 15.3932C31.3097 15.1023 30.5735 14.8036 29.8738 14.4275C29.5581 14.2572 29.2455 14.0854 28.9345 13.9059C28.3316 13.5592 27.7842 13.1382 27.2733 12.6724C26.9417 12.3706 26.6641 12.0223 26.4007 11.6602C26.1389 11.2996 25.9057 10.925 25.7375 10.5211C25.4107 9.73173 25.2108 8.913 25.2948 8.04783C25.3234 7.75841 25.3599 7.47208 25.4265 7.18731C25.5614 6.60847 25.7899 6.06677 26.0977 5.55603C26.3198 5.18767 26.5578 4.82861 26.8624 4.51907C27.1385 4.23893 27.4241 3.96653 27.7081 3.69414C27.8255 3.5827 27.9524 3.4821 28.0762 3.37686C28.0571 3.3521 28.0508 3.33198 28.0381 3.32733C27.9619 3.29638 27.8842 3.26542 27.8064 3.23911C27.2258 3.04565 26.6324 2.89552 26.0199 2.83981C25.6185 2.80266 25.2171 2.76552 24.8141 2.75159C24.538 2.74075 24.2604 2.76552 23.9843 2.77945C23.648 2.79647 23.31 2.8104 22.9752 2.84445C22.5754 2.88469 22.1772 2.93267 21.7805 3.00077C20.8539 3.16018 19.9638 3.42948 19.1341 3.86903C18.685 4.10738 18.263 4.38596 17.8902 4.72646C17.384 5.18922 16.989 5.72937 16.7097 6.35464C16.4527 6.92884 16.2813 7.5278 16.2433 8.14688C16.2083 8.68858 16.2163 9.23492 16.321 9.77816C16.4923 10.6573 16.8604 11.4404 17.4189 12.1415C17.7489 12.5563 18.1392 12.9185 18.5549 13.2497C19.1959 13.762 19.8972 14.1845 20.6366 14.5482C21.0126 14.7339 21.395 14.9088 21.7853 15.062C22.6309 15.3963 23.4829 15.7167 24.3334 16.0386C24.8125 16.2213 25.2996 16.3869 25.7756 16.5772C26.2928 16.7846 26.8005 17.0137 27.313 17.2319C27.862 17.4656 28.384 17.7519 28.8885 18.0661C29.3502 18.354 29.8072 18.6511 30.2038 19.0226C30.5307 19.3306 30.8734 19.6278 31.159 19.9698C31.5064 20.3877 31.7968 20.8504 32.0252 21.3473C32.341 22.036 32.5155 22.7541 32.5409 23.5048C32.5504 23.7617 32.506 24.0201 32.4869 24.2786C32.4568 24.6903 32.3473 25.0834 32.2061 25.4703C31.8936 26.32 31.3922 27.0536 30.756 27.7006C30.472 27.9884 30.1626 28.2531 29.85 28.541L29.8516 28.5379ZM52.4544 7.03408C52.3782 6.9536 52.3275 6.8917 52.2672 6.83907C52.1514 6.74002 52.0308 6.64406 51.9102 6.5512C51.4882 6.22928 51.0788 5.89033 50.6393 5.59317C50.1538 5.26506 49.6445 4.9679 49.1368 4.66919C48.4609 4.27298 47.7453 3.95106 47.0187 3.6539C46.3237 3.37067 45.6129 3.13232 44.891 2.92029C44.5943 2.83362 44.2992 2.73921 43.9867 2.74075C43.2775 2.74694 42.5667 2.70361 41.859 2.80111C41.5163 2.84909 41.1689 2.87231 40.8277 2.93731C40.0995 3.07351 39.3855 3.25769 38.7001 3.54246C38.1369 3.77617 37.599 4.05011 37.1087 4.40608C36.7517 4.66455 36.4265 4.95707 36.1409 5.28827C35.8268 5.65353 35.5761 6.05903 35.3825 6.50013C35.1445 7.04647 35.0065 7.61757 34.9747 8.20724C34.9557 8.56322 34.989 8.92074 35.0001 9.27671C35.0128 9.66828 35.1048 10.0459 35.2286 10.4143C35.5158 11.2717 35.9997 12.013 36.647 12.6522C36.7565 12.759 36.8723 12.8596 36.9929 12.9556C37.2674 13.1738 37.5339 13.4013 37.8243 13.5979C38.497 14.0576 39.211 14.4507 39.9646 14.7711C40.5025 14.9986 41.0388 15.2307 41.5846 15.4428C42.243 15.6981 42.9125 15.9241 43.571 16.1764C44.277 16.4472 44.9815 16.7212 45.6764 17.0152C46.4332 17.3371 47.1678 17.7071 47.8612 18.1497C48.4546 18.5289 49.0035 18.9607 49.497 19.4606C49.7746 19.7423 50.0269 20.041 50.2554 20.3598C50.6171 20.8659 50.8741 21.4215 51.0471 22.0112C51.1248 22.2743 51.1883 22.5452 51.2153 22.8176C51.2502 23.1612 51.2533 23.5094 51.247 23.8545C51.2422 24.0898 51.2137 24.3281 51.1708 24.5603C51.0629 25.1484 50.863 25.7087 50.5695 26.2334C50.5362 26.2922 50.514 26.3556 50.4854 26.4175C50.4965 26.4299 50.5092 26.4423 50.5203 26.4531C50.579 26.4253 50.6441 26.4051 50.6949 26.368C51.0328 26.1157 51.3771 25.8712 51.7023 25.6034C52.0927 25.2846 52.4734 24.9534 52.8431 24.6129C53.0748 24.3978 53.2779 24.1517 53.4952 23.9211C53.9109 23.4784 54.2838 23.0048 54.6265 22.5065C55.0548 21.8859 55.434 21.2405 55.7419 20.5548C56.0179 19.9404 56.2496 19.3105 56.4003 18.6573C56.4923 18.2596 56.5605 17.8556 56.6288 17.4532C56.67 17.204 56.6986 16.9518 56.7192 16.6995C56.7319 16.5401 56.7224 16.3776 56.7224 16.212H52.08C52.0133 17.4919 51.8293 18.7378 51.4009 19.9667C51.1851 19.6757 50.9884 19.4111 50.7964 19.1526C51.0518 18.1806 51.2184 17.2087 51.2454 16.198H51.0201C49.5858 16.198 48.1499 16.198 46.7156 16.1965C46.6347 16.1965 46.549 16.1857 46.4745 16.1547C45.9795 15.9535 45.486 15.7461 44.9926 15.5403C44.891 15.4985 44.7911 15.4536 44.6895 15.4103C44.7625 15.4041 44.8371 15.3979 44.9101 15.3917C44.899 14.5962 44.8339 13.666 44.6562 12.6399C44.4801 11.6184 44.2326 10.7238 43.9772 9.97163C43.9153 9.97782 43.8677 9.98246 43.8407 9.98556C43.4917 10.0212 43.2965 10.0444 43.0014 10.0738C42.8634 10.0877 42.7269 10.0985 42.5889 10.1094C42.2541 10.1388 41.9177 10.1728 41.583 10.196C41.3402 10.2131 41.0959 10.2162 40.8515 10.227C40.3867 10.2471 39.9218 10.2703 39.4585 10.2874C39.1761 10.2982 38.8905 10.2889 38.8905 10.2889C38.8239 10.2889 38.7683 10.2889 38.7287 10.2874C38.7287 11.1216 38.7271 11.9542 38.7255 12.7884V12.8504C38.4431 12.6352 38.1638 12.4185 37.883 12.2034V10.3013C37.3943 10.2843 36.9263 10.2672 36.4344 10.2487C36.363 9.98556 36.2948 9.72709 36.2234 9.46398C36.2678 9.45315 36.2885 9.44386 36.3091 9.44386C36.8295 9.45779 37.3483 9.47327 37.8941 9.48874V5.82068H38.7318V9.50422C38.7794 9.50422 38.8477 9.50422 38.9317 9.50422C39.514 9.50112 39.9488 9.4841 40.2788 9.47172C40.6437 9.45624 41.226 9.42838 41.8686 9.37886C42.0494 9.36493 42.2097 9.351 42.2811 9.34481C42.5778 9.31695 42.8729 9.28909 43.1696 9.25813C43.3425 9.23956 43.5139 9.21635 43.7058 9.19158C43.1378 7.78162 42.3779 6.52489 41.3005 5.45388C41.5941 5.37495 41.8606 5.30375 42.1478 5.22637C43.2124 6.35309 43.9613 7.67019 44.5309 9.10182C45.9763 8.90371 47.3931 8.6437 48.802 8.26915C47.5899 6.57442 46.0493 5.27589 44.1866 4.30858C44.4341 4.17393 44.6816 4.03928 44.9275 3.90463C45.0386 3.95725 45.2179 4.04392 45.4352 4.16C45.9223 4.42156 46.9965 5.04683 48.0484 6.11784C48.2737 6.3469 48.4086 6.49084 48.591 6.70907C49.0131 7.21517 49.1495 7.48292 49.5224 7.8652C49.589 7.9333 49.6429 7.98437 49.6667 8.00759C49.7937 7.9689 49.9761 7.91473 50.1935 7.84663C50.3791 7.78936 50.7932 7.65936 51.1328 7.54328C51.4533 7.43339 51.9038 7.26934 52.4544 7.03099V7.03408ZM15.9862 26.7441C15.4166 26.1622 14.9216 25.5261 14.4932 24.8342C14.0664 24.144 13.719 23.415 13.4016 22.6504C11.9753 22.8392 10.5791 23.1085 9.17809 23.4645C9.19871 23.5218 9.20506 23.5775 9.23521 23.6162C9.72864 24.2476 10.2379 24.8667 10.8599 25.3883C11.412 25.8511 11.6865 26.0848 11.7532 26.1374C12.3846 26.6249 12.9764 26.9979 13.5587 27.3663C13.7253 27.4715 13.8633 27.5566 13.9538 27.6124C13.7063 27.747 13.4603 27.8832 13.2128 28.0179C12.3513 27.5675 11.6976 27.1233 11.2423 26.7812C10.6695 26.351 10.2824 25.9826 10.1729 25.8851C9.95235 25.6886 9.74927 25.4719 9.55253 25.2506C9.24949 24.9085 8.95755 24.5556 8.66403 24.2059C8.53234 24.048 8.41017 23.8824 8.28483 23.723C7.29003 24.0155 6.33013 24.356 5.40355 24.7754C5.39879 24.8977 5.49081 24.9472 5.55745 25.006C5.77164 25.1933 5.98742 25.379 6.21272 25.5524C6.62048 25.8665 7.02665 26.1823 7.44869 26.4748C8.01669 26.871 8.61008 27.2301 9.23362 27.5381C9.89682 27.8646 10.5648 28.185 11.2518 28.459C11.8928 28.7159 12.5401 28.979 13.2462 29.0409C13.6301 29.0749 14.0125 29.1399 14.3964 29.1539C14.9629 29.174 15.5309 29.1678 16.0957 29.0873C16.386 29.0455 16.678 29.013 16.9683 28.9836C17.5649 28.9217 18.144 28.7762 18.7136 28.5982C19.4514 28.3676 20.1384 28.0333 20.7683 27.5922C21.1046 27.357 21.3981 27.0738 21.6679 26.7735C22.028 26.3726 22.293 25.9114 22.5056 25.4193C22.7642 24.8218 22.8959 24.195 22.9419 23.5543C22.9752 23.0962 22.9356 22.638 22.8515 22.183C22.7277 21.5113 22.485 20.8829 22.1232 20.301C21.7424 19.6897 21.2474 19.1727 20.6873 18.7177C20.0733 18.2178 19.3911 17.8138 18.6835 17.4548C17.9711 17.0926 17.2333 16.7846 16.4828 16.5029C15.8006 16.2476 15.1231 15.9845 14.4345 15.7461C13.6301 15.4675 12.8368 15.1626 12.0657 14.8113C11.247 14.4383 10.4442 14.0343 9.70802 13.5159C9.10034 13.0872 8.5371 12.6167 8.05477 12.0502C7.64384 11.5673 7.31224 11.0442 7.0679 10.4653C6.64428 9.46553 6.63317 8.60965 6.63317 8.35428C6.63317 7.71662 6.75534 7.21207 6.8188 6.94896C6.93621 6.45834 7.0917 6.06677 7.14247 5.9445C7.18214 5.84854 7.21704 5.76961 7.24243 5.71234C7.09487 5.80985 6.90448 5.9414 6.68553 6.10237C6.53321 6.2138 6.09372 6.53882 5.57014 7.01861C5.02911 7.51542 4.51663 8.03854 4.05493 8.60965C3.55039 9.23492 3.09027 9.8865 2.70632 10.5876C2.30966 11.3135 1.98282 12.0688 1.74483 12.8612C1.49891 13.6815 1.36246 14.5172 1.28789 15.3654C1.28313 15.4288 1.28789 15.4923 1.28789 15.5635H5.86208C5.90968 14.251 6.11435 12.9788 6.54115 11.7205C6.74582 11.9836 6.95049 12.2467 7.15675 12.5099C7.1393 12.5733 7.11233 12.677 7.08059 12.807C6.9727 13.2543 6.81087 14.0297 6.74423 15.0202C6.73471 15.1502 6.72519 15.3422 6.71885 15.5759C6.72361 15.5759 6.93621 15.5759 6.94097 15.5759C8.24834 15.5759 10.0412 15.5759 11.2914 15.5743C11.8753 15.8312 12.4592 16.0882 13.0415 16.3435C13.0494 17.1406 13.1113 18.0646 13.2763 19.0814C13.4429 20.1106 13.6809 21.0176 13.9284 21.7853C14.0093 21.7775 14.122 21.7667 14.2092 21.7574C15.7403 21.6088 16.0703 21.5856 16.2369 21.5763C16.4654 21.5624 16.5304 21.5593 16.8002 21.5423C17.1254 21.5221 17.4507 21.4943 17.7759 21.4819C18.3281 21.4618 18.7691 21.4525 19.1388 21.4479C19.1769 21.4479 19.2086 21.4479 19.2245 21.4479C19.2277 20.6198 19.2324 19.7918 19.2356 18.9638C19.5133 19.1743 19.7925 19.3848 20.0702 19.5952V21.4479C20.5795 21.4695 21.0713 21.4912 21.5632 21.5113C21.6457 21.7775 21.7297 22.0453 21.8122 22.3115C21.5171 22.3022 21.2236 22.2929 20.9285 22.2836C20.6382 22.2805 20.3462 22.2774 20.0559 22.2759V26.2303H19.215V22.3625C19.1769 22.3254 19.1563 22.3053 19.1166 22.2681C18.6327 22.2759 18.2186 22.2883 17.8949 22.2991C17.5094 22.313 17.0968 22.3316 16.5511 22.361C16.2702 22.3765 15.9894 22.3997 15.7086 22.4214C15.323 22.4523 14.9375 22.4817 14.5535 22.5173C14.4567 22.5266 14.3615 22.5498 14.241 22.5699C14.3774 22.9553 14.5408 23.3144 14.7265 23.6611C14.9121 24.0108 15.112 24.3544 15.331 24.6856C15.5483 25.0153 15.7816 25.3403 16.037 25.6421C16.2909 25.9439 16.5828 26.2163 16.8731 26.5181C16.5685 26.5955 16.2924 26.6667 15.9846 26.7441H15.9862ZM5.86367 16.3729H1.28313C1.32121 17.6266 1.57665 18.8245 2.02566 19.9775C2.63333 21.5407 3.55198 22.9166 4.72924 24.1641C5.08305 24.0697 5.40038 23.8747 5.74467 23.7493C6.08579 23.6255 6.42374 23.4908 6.76645 23.3686C7.11233 23.2447 7.46297 23.1302 7.83899 23.0002C7.23132 21.9818 6.74582 20.9247 6.4158 19.8073C6.08579 18.6914 5.89698 17.5507 5.86367 16.3745V16.3729ZM51.2486 15.3762C51.1693 13.0639 50.5124 10.9451 49.2955 8.99193C48.921 9.07705 48.5513 9.16372 48.1848 9.2473C48.0928 9.26897 47.5169 9.39743 47.0869 9.4872C46.5744 9.59553 45.8176 9.74257 44.8212 9.89579C44.8292 9.92365 44.845 9.97008 44.8625 10.0273C44.8625 10.0273 44.9609 10.3415 45.0354 10.6015C45.21 11.2191 45.3543 11.8428 45.4543 12.4758C45.5066 12.8101 45.559 13.146 45.6034 13.4818C45.6336 13.7202 45.6463 13.8966 45.6732 14.2216C45.697 14.5064 45.7272 14.9011 45.7573 15.3747H51.2486V15.3762ZM13.1113 21.8719C12.8416 20.9619 12.6067 20.0673 12.4576 19.1542C12.3069 18.2333 12.2418 17.3046 12.2006 16.3698H6.71726C6.71409 16.4333 6.70774 16.4859 6.70774 16.5401C6.70457 17.0586 6.7839 17.5693 6.86164 18.0816C6.94732 18.6465 7.08853 19.199 7.25829 19.7454C7.53436 20.6322 7.90087 21.4819 8.36575 22.2913C8.45618 22.4492 8.55931 22.6024 8.66561 22.7727C10.1332 22.3889 11.6024 22.0855 13.1129 21.8735L13.1113 21.8719ZM50.1316 8.73501C50.3966 9.26587 50.6615 9.78435 50.9138 10.309C51.1677 10.8368 51.3707 11.3862 51.5247 11.948C51.6786 12.5083 51.815 13.0763 51.9102 13.649C52.0054 14.2201 52.0387 14.7989 52.1006 15.3747H56.6954C56.6573 14.1597 56.3686 13.0098 55.9243 11.897C55.2865 10.2982 54.3171 8.90216 53.1049 7.6609C53.0827 7.65936 53.0557 7.64852 53.0383 7.65626C52.0879 8.05247 51.1343 8.43476 50.13 8.73656L50.1316 8.73501Z" fill="#314381"/>
</svg>
