<svg width="40" height="40" viewBox="0 0 40 40" fill="none" xmlns="http://www.w3.org/2000/svg">
	<path
		d="M7 36V4C7 1.85996 8.68056 0.112115 10.7939 0.00488281L11 0H27C27.3201 0 27.6271 0.127163 27.8535 0.353516L38.6465 11.1465C38.8728 11.3729 39 11.6799 39 12V36L38.9951 36.2061C38.8879 38.3194 37.14 40 35 40V38.5C36.3807 38.5 37.5 37.3807 37.5 36V12.1211L26.8789 1.5H11C9.61929 1.5 8.5 2.61929 8.5 4V36C8.5 37.3807 9.61929 38.5 11 38.5V40L10.7939 39.9951C8.7488 39.8913 7.10865 38.2512 7.00488 36.2061L7 36ZM35 38.5V40H11V38.5H35Z"
		fill="#C0C2C5" />
	<path
		d="M26.25 8V0.5H27.75V8C27.75 9.79492 29.2051 11.25 31 11.25H38.5V12.75H31C28.3766 12.75 26.25 10.6234 26.25 8Z"
		fill="#C0C2C5" />
	<path
		d="M1 20C1 18.8954 1.89543 18 3 18H25C26.1046 18 27 18.8954 27 20V32C27 33.1046 26.1046 34 25 34H3C1.89543 34 1 33.1046 1 32V20Z"
		fill="#079455" />
	<path
		d="M6.38681 22.7244L7.85343 25.2031H7.91025L9.38397 22.7244H11.1205L8.90101 26.3608L11.1702 29.9972H9.40172L7.91025 27.5149H7.85343L6.36195 29.9972H4.60059L6.87686 26.3608L4.6432 22.7244H6.38681Z"
		fill="white" />
	<path d="M12.0935 29.9972V22.7244H13.6311V28.7294H16.749V29.9972H12.0935Z" fill="white" />
	<path
		d="M21.7126 24.8161C21.6842 24.5296 21.5623 24.3071 21.3469 24.1484C21.1314 23.9898 20.839 23.9105 20.4697 23.9105C20.2188 23.9105 20.0069 23.946 19.8341 24.017C19.6613 24.0857 19.5287 24.1816 19.4363 24.3047C19.3464 24.4278 19.3014 24.5675 19.3014 24.7237C19.2967 24.8539 19.3239 24.9676 19.3831 25.0646C19.4446 25.1617 19.5287 25.2457 19.6352 25.3168C19.7417 25.3854 19.8649 25.4458 20.0045 25.4979C20.1442 25.5476 20.2934 25.5902 20.452 25.6257L21.1054 25.782C21.4226 25.853 21.7138 25.9477 21.979 26.0661C22.2441 26.1844 22.4738 26.33 22.6679 26.5028C22.862 26.6757 23.0123 26.8793 23.1189 27.1136C23.2278 27.348 23.2834 27.6167 23.2858 27.9197C23.2834 28.3648 23.1698 28.7507 22.9449 29.0774C22.7223 29.4018 22.4004 29.6539 21.979 29.8338C21.5599 30.0114 21.0545 30.1001 20.4626 30.1001C19.8755 30.1001 19.3641 30.0102 18.9285 29.8303C18.4953 29.6503 18.1568 29.384 17.9129 29.0312C17.6714 28.6761 17.5448 28.237 17.5329 27.7138H19.0209C19.0374 27.9576 19.1073 28.1612 19.2304 28.3246C19.3559 28.4856 19.5228 28.6075 19.7311 28.6903C19.9418 28.7708 20.1797 28.8111 20.4449 28.8111C20.7053 28.8111 20.9314 28.7732 21.1231 28.6974C21.3173 28.6217 21.4676 28.5163 21.5741 28.3814C21.6807 28.2464 21.7339 28.0914 21.7339 27.9162C21.7339 27.7528 21.6854 27.6155 21.5883 27.5043C21.4936 27.393 21.354 27.2983 21.1693 27.2202C20.987 27.142 20.7633 27.071 20.4981 27.0071L19.7062 26.8082C19.0931 26.6591 18.6089 26.4259 18.2538 26.1087C17.8987 25.7914 17.7223 25.3641 17.7247 24.8267C17.7223 24.3864 17.8395 24.0017 18.0763 23.6726C18.3154 23.3435 18.6433 23.0866 19.0599 22.902C19.4766 22.7173 19.9501 22.625 20.4804 22.625C21.0202 22.625 21.4913 22.7173 21.8937 22.902C22.2986 23.0866 22.6134 23.3435 22.8383 23.6726C23.0632 24.0017 23.1792 24.3828 23.1863 24.8161H21.7126Z"
		fill="white" />
</svg>
