<svg width="1193" height="636" viewBox="0 0 1193 636" fill="none" xmlns="http://www.w3.org/2000/svg">
<path opacity="0.31" d="M596.296 39.4438C610.133 34.3362 623.448 29.0024 637.024 24.509C655.756 18.3023 674.848 13.2271 694.331 9.76815C705.035 7.86089 715.804 6.11526 726.574 4.66057C734.994 3.49682 743.479 2.94727 751.931 1.97748C762.015 0.813727 772.132 0.619769 782.282 0.652095C785.219 0.652095 788.156 0.0378932 791.093 0.0702196C798.828 0.167199 806.595 0.296505 814.329 0.716748C822.945 1.20164 831.56 1.71887 840.111 2.72099C852.022 4.14335 863.934 5.75967 875.781 7.76391C886.974 9.63884 898.103 11.8047 909.133 14.4555C919.283 16.88 929.269 19.9833 939.255 23.022C954.3 27.5477 968.953 33.1078 983.345 39.3468C997.639 45.5535 1011.57 52.5683 1025.15 60.262C1042.09 69.8307 1058.08 80.7893 1073.55 92.4592C1078.61 96.2737 1083.37 100.508 1088.04 104.776C1095.77 111.79 1103.64 118.741 1110.88 126.208C1117.74 133.255 1124.03 140.852 1130.27 148.449C1135.36 154.655 1140.29 161.024 1144.82 167.65C1149.36 174.245 1153.47 181.163 1157.52 188.081C1160.39 192.962 1162.97 198.005 1165.48 203.08C1174.36 220.957 1181.37 239.512 1185.78 258.973C1187.44 266.408 1189.08 273.875 1190.35 281.407C1191.2 286.385 1191.46 291.461 1191.78 296.504C1192.31 304.359 1193.09 312.247 1192.99 320.134C1192.86 328.765 1191.85 337.429 1191.16 346.06C1189.89 361.932 1186.37 377.384 1181.73 392.578C1178.8 402.146 1174.91 411.456 1171.19 420.766C1169.1 426.003 1166.75 431.175 1164.11 436.186C1155.07 453.448 1144.76 469.903 1132.52 485.128C1127.69 491.109 1122.73 496.992 1117.47 502.617C1110.26 510.343 1103.02 518.037 1095.25 525.213C1087.87 532.034 1079.75 538.079 1072.05 544.577C1062.39 552.691 1051.78 559.511 1041.17 566.3C1028.25 574.576 1014.71 581.784 1000.9 588.605C984.846 596.525 968.333 603.184 951.494 609.133C935.535 614.757 919.25 619.445 902.77 623.162C891.935 625.619 880.97 627.462 870.004 629.304C861.193 630.791 852.316 631.987 843.44 633.183C839.85 633.668 836.195 633.701 832.572 633.927C823.402 634.573 814.231 635.349 805.028 635.802C798.86 636.093 792.66 636.028 786.492 635.834C777.289 635.543 768.086 635.026 758.85 634.606C754.542 634.412 750.202 634.282 745.894 633.895C740.933 633.442 736.005 632.731 731.045 632.117C725.66 631.438 720.21 630.888 714.858 629.951C703.24 627.914 691.557 626.136 680.102 623.388C665.122 619.768 650.208 615.727 635.49 611.072C623.807 607.387 612.45 602.603 601.028 598.174C597.862 596.945 595.153 596.816 591.89 598.174C576.258 604.736 560.299 610.393 544.047 615.242C528.056 620.026 511.869 623.97 495.486 627.106C486.479 628.819 477.341 629.951 468.236 631.244C461.742 632.181 455.248 633.022 448.721 633.83C445.686 634.185 442.618 634.412 439.55 634.541C433.415 634.8 427.247 635.026 421.111 635.188C410.505 635.446 399.899 635.866 389.292 635.769C381.003 635.705 372.681 635.091 364.425 634.509C357.767 634.024 351.11 633.345 344.485 632.537C337.86 631.729 331.235 630.824 324.643 629.66C313.808 627.753 302.973 625.748 292.236 623.453C283.914 621.675 275.69 619.542 267.499 617.279C260.058 615.21 252.585 613.109 245.34 610.426C232.123 605.512 218.971 600.469 206.015 594.941C196.29 590.803 186.76 586.116 177.459 581.138C164.144 574.026 151.058 566.462 138.852 557.54C130.531 551.462 122.143 545.449 113.952 539.178C110.003 536.139 106.315 532.745 102.693 529.319C94.3711 521.431 85.886 513.673 77.9557 505.365C68.3284 495.311 59.4191 484.611 51.6194 473.071C46.1041 464.924 40.5235 456.81 35.6283 448.309C29.754 438.126 24.5977 427.555 20.1267 416.629C14.4156 402.696 9.65094 388.537 6.51799 373.861C4.69044 365.197 3.45031 356.372 2.07965 347.612C0.121553 334.972 -0.270065 322.235 0.154188 309.499C0.382632 302.452 1.39431 295.404 2.04701 288.357C3.22187 276.009 5.70212 263.886 8.93297 251.925C12.4575 238.833 17.1243 226.161 22.5417 213.716C28.5465 199.88 35.6936 186.626 44.0807 174.116C50.8688 163.998 58.0811 154.106 65.685 144.569C74.8554 133.029 85.2333 122.458 96.1007 112.437C109.514 100.056 123.775 88.677 138.918 78.3972C151.972 69.5074 165.482 61.3935 179.45 53.9584C196.453 44.907 214.043 37.2456 232.058 30.4247C249.517 23.8301 267.303 18.367 285.481 14.1969C299.188 11.0289 312.992 8.44277 326.862 6.01828C334.564 4.66057 342.396 4.01404 350.163 3.27054C358.42 2.46238 366.677 1.81585 374.933 1.29862C381.525 0.910707 388.15 0.846054 394.742 0.587443C397.81 0.458137 400.878 -0.0590861 403.913 0.00556677C411.647 0.102546 419.414 0.231852 427.149 0.684422C435.536 1.13699 443.923 1.78352 452.278 2.68866C460.045 3.49682 467.779 4.78988 475.514 5.75967C494.116 8.08717 512.359 12.128 530.471 16.9123C545.875 20.9854 561.05 25.7374 575.899 31.5238C582.785 34.2069 589.671 36.8254 596.393 39.4115L596.296 39.4438ZM614.016 579.877C614.506 580.2 615.028 580.685 615.648 580.879C623.35 583.336 630.954 586.019 638.753 588.088C647.304 590.319 655.985 592.096 664.829 592.775C671.421 593.293 677.948 594.424 684.54 594.553C696.158 594.78 707.809 594.747 719.427 593.454C728.695 592.42 737.866 591.062 746.938 588.961C764.104 584.985 780.617 579.295 795.923 570.47C807.28 563.94 817.886 556.44 826.861 546.71C834.171 538.79 839.98 529.965 844.68 520.332C851.076 507.24 854.242 493.339 855.221 478.986C855.612 472.941 854.992 466.799 854.698 460.722C854.274 452.479 852.545 444.462 850.228 436.542C845.43 420.12 837.5 405.314 826.143 392.545C817.005 382.298 806.595 373.311 795.172 365.488C778.79 354.206 761.297 344.993 742.924 337.493C725.987 330.576 708.853 324.175 691.753 317.613C680.918 313.475 669.985 309.66 659.216 305.329C644.008 299.251 628.865 293.012 614.473 285.157C607.979 281.601 601.55 278.013 595.153 274.263C582.752 267.022 571.493 258.229 560.985 248.499C554.164 242.195 548.453 234.922 543.035 227.357C537.651 219.825 532.853 212.002 529.394 203.565C522.671 187.079 518.559 169.978 520.289 151.907C520.876 145.862 521.627 139.882 522.998 133.934C525.772 121.844 530.471 110.53 536.802 99.8619C541.371 92.1682 546.266 84.6685 552.532 78.2032C558.211 72.3521 564.085 66.6627 569.927 60.9732C572.342 58.6457 574.952 56.5445 577.498 54.3463C577.106 53.8291 576.976 53.4088 576.715 53.3119C575.148 52.6653 573.549 52.0188 571.95 51.4692C560.006 47.4284 547.8 44.2928 535.203 43.129C526.946 42.3532 518.69 41.5774 510.401 41.2864C504.722 41.0601 499.011 41.5774 493.332 41.8683C486.414 42.2239 479.463 42.5148 472.577 43.226C464.353 44.0665 456.161 45.0686 448.003 46.491C428.944 49.8206 410.636 55.4454 393.568 64.6261C384.332 69.6044 375.651 75.4231 367.982 82.535C357.571 92.2006 349.445 103.482 343.702 116.542C338.415 128.535 334.89 141.046 334.107 153.976C333.389 165.291 333.552 176.702 335.706 188.048C339.231 206.41 346.802 222.767 358.289 237.411C365.077 246.074 373.106 253.639 381.656 260.557C394.84 271.257 409.265 280.082 424.473 287.678C432.207 291.558 440.072 295.211 448.101 298.411C465.495 305.393 483.02 312.085 500.512 318.809C510.368 322.623 520.387 326.082 530.177 330.058C540.816 334.39 551.259 339.174 561.8 343.733C573.092 348.614 583.829 354.594 594.207 361.156C603.704 367.169 613.102 373.376 621.261 381.134C627.984 387.567 635.033 393.774 640.907 400.918C648.054 409.646 654.027 419.312 658.726 429.689C665.22 444.074 668.81 459.073 669.332 474.752C669.528 480.118 668.614 485.516 668.223 490.915C667.603 499.514 665.351 507.724 662.446 515.806C656.017 533.553 645.705 548.876 632.618 562.388C626.777 568.401 620.413 573.929 613.984 579.942L614.016 579.877ZM1078.93 130.734C1077.37 129.053 1076.32 127.76 1075.08 126.661C1072.7 124.592 1070.22 122.587 1067.74 120.648C1059.06 113.924 1050.64 106.844 1041.6 100.638C1031.61 93.7845 1021.14 87.5779 1010.69 81.3389C996.791 73.0633 982.072 66.3394 967.126 60.1327C952.832 54.217 938.211 49.2387 923.362 44.81C917.26 42.9997 911.189 41.0278 904.76 41.0601C890.173 41.1894 875.552 40.2843 860.997 42.3209C853.948 43.323 846.801 43.8079 839.784 45.1656C824.805 48.0103 810.119 51.8572 796.021 57.8052C784.436 62.6865 773.372 68.4083 763.288 75.8434C755.945 81.2419 749.255 87.3516 743.381 94.2694C736.919 101.898 731.763 110.368 727.781 119.581C722.886 130.992 720.047 142.921 719.394 155.237C719.003 162.672 719.688 170.14 719.916 177.575C720.178 185.753 722.07 193.641 724.616 201.335C730.523 219.243 740.476 234.728 753.791 248.079C756.043 250.309 758.426 252.41 760.906 254.415C766.552 258.973 772.034 263.725 778.007 267.83C791.844 277.431 806.529 285.642 822.031 292.333C833.094 297.085 844.125 301.934 855.351 306.363C868.895 311.697 882.667 316.417 896.21 321.686C910.733 327.343 925.223 333.065 939.517 339.207C955.083 345.931 970.193 353.657 984.455 362.902C996.66 370.822 1007.95 379.841 1018.1 390.283C1023.81 396.166 1029 402.405 1033.7 409.064C1041.14 419.635 1046.43 431.24 1049.99 443.557C1051.58 449.052 1052.89 454.709 1053.44 460.399C1054.16 467.575 1054.23 474.849 1054.1 482.057C1054 486.971 1053.41 491.949 1052.53 496.798C1050.31 509.082 1046.2 520.784 1040.16 531.743C1039.48 532.971 1039.02 534.297 1038.43 535.59C1038.66 535.848 1038.92 536.107 1039.15 536.333C1040.36 535.751 1041.7 535.331 1042.74 534.555C1049.69 529.286 1056.77 524.179 1063.46 518.586C1071.49 511.927 1079.32 505.009 1086.93 497.897C1091.69 493.404 1095.87 488.264 1100.34 483.447C1108.89 474.202 1116.56 464.31 1123.61 453.901C1132.42 440.938 1140.22 427.458 1146.55 413.137C1152.23 400.304 1157 387.147 1160.1 373.505C1161.99 365.197 1163.39 356.76 1164.8 348.355C1165.64 343.151 1166.23 337.881 1166.66 332.612C1166.92 329.283 1166.72 325.888 1166.72 322.429H1071.23C1069.86 349.163 1066.07 375.186 1057.26 400.853C1052.82 394.776 1048.78 389.248 1044.83 383.85C1050.08 363.549 1053.51 343.248 1054.06 322.138H1049.43C1019.93 322.138 990.394 322.138 960.892 322.106C959.228 322.106 957.466 321.88 955.932 321.233C945.75 317.031 935.6 312.699 925.451 308.4C923.362 307.527 921.306 306.589 919.218 305.684C920.719 305.555 922.253 305.426 923.754 305.296C923.525 288.681 922.187 269.252 918.532 247.82C914.91 226.485 909.819 207.8 904.565 192.089C903.292 192.219 902.313 192.316 901.758 192.38C894.578 193.124 890.564 193.609 884.494 194.223C881.655 194.514 878.848 194.74 876.009 194.966C869.123 195.58 862.205 196.292 855.319 196.777C850.325 197.132 845.3 197.197 840.274 197.423C830.712 197.843 821.15 198.328 811.62 198.684C805.811 198.91 799.937 198.716 799.937 198.716C798.566 198.716 797.424 198.716 796.608 198.684C796.608 216.108 796.576 233.499 796.543 250.923V252.216C790.734 247.723 784.99 243.197 779.214 238.704V198.975C769.162 198.619 759.535 198.264 749.418 197.876C747.95 192.38 746.547 186.982 745.078 181.486C745.992 181.26 746.416 181.066 746.84 181.066C757.544 181.357 768.216 181.68 779.442 182.003V105.39H796.674V182.327C797.653 182.327 799.056 182.327 800.786 182.327C812.763 182.262 821.705 181.906 828.493 181.648C835.999 181.325 847.976 180.743 861.193 179.708C864.913 179.417 868.209 179.126 869.678 178.997C875.781 178.415 881.851 177.833 887.953 177.187C891.511 176.799 895.035 176.314 898.984 175.797C887.301 146.347 871.669 120.098 849.51 97.7284C855.547 96.0797 861.03 94.5927 866.937 92.9764C888.835 116.51 904.238 144.02 915.954 173.922C945.685 169.784 974.827 164.353 1003.81 156.53C978.874 121.133 947.186 94.0108 908.872 73.8068C913.963 70.9944 919.055 68.182 924.113 65.3696C926.397 66.4687 930.085 68.279 934.556 70.7035C944.575 76.1666 966.669 89.2265 988.306 111.596C992.94 116.381 995.714 119.387 999.467 123.945C1008.15 134.516 1010.95 140.108 1018.62 148.093C1019.99 149.515 1021.1 150.582 1021.59 151.067C1024.2 150.259 1027.96 149.127 1032.43 147.705C1036.25 146.509 1044.76 143.794 1051.75 141.369C1058.34 139.074 1067.61 135.647 1078.93 130.669V130.734ZM328.82 542.411C317.104 530.256 306.922 516.97 298.111 502.52C289.332 488.102 282.185 472.877 275.658 456.907C246.319 460.851 217.6 466.476 188.784 473.911C189.208 475.107 189.339 476.271 189.959 477.079C200.108 490.268 210.584 503.199 223.377 514.093C234.734 523.758 240.38 528.64 241.75 529.739C254.739 539.922 266.912 547.712 278.889 555.406C282.315 557.604 285.155 559.382 287.015 560.546C281.924 563.358 276.865 566.203 271.774 569.015C254.054 559.608 240.608 550.331 231.242 543.187C219.461 534.2 211.498 526.506 209.246 524.47C204.71 520.364 200.532 515.838 196.486 511.216C190.252 504.072 184.248 496.701 178.21 489.395C175.501 486.098 172.989 482.639 170.41 479.31C149.948 485.419 130.204 492.531 111.145 501.292C111.048 503.845 112.94 504.88 114.311 506.108C118.717 510.02 123.155 513.899 127.789 517.519C136.176 524.082 144.531 530.676 153.212 536.786C164.895 545.061 177.1 552.561 189.926 558.994C203.567 565.815 217.307 572.507 231.438 578.228C244.622 583.595 257.937 589.09 272.46 590.383C280.357 591.094 288.222 592.452 296.12 592.743C307.771 593.163 319.454 593.034 331.072 591.353C337.044 590.48 343.049 589.801 349.021 589.187C361.292 587.894 373.203 584.855 384.919 581.138C400.095 576.321 414.226 569.339 427.182 560.126C434.1 555.212 440.138 549.296 445.686 543.025C453.094 534.652 458.544 525.019 462.917 514.739C468.236 502.261 470.945 489.169 471.891 475.786C472.577 466.217 471.761 456.649 470.031 447.145C467.486 433.115 462.493 419.991 455.052 407.836C447.219 395.067 437.037 384.27 425.517 374.766C412.888 364.324 398.854 355.887 384.299 348.388C369.646 340.823 354.471 334.39 339.035 328.507C325.002 323.173 311.067 317.677 296.903 312.699C280.357 306.88 264.04 300.512 248.179 293.174C231.34 285.383 214.826 276.946 199.684 266.117C187.185 257.162 175.599 247.335 165.678 235.504C157.226 225.418 150.405 214.491 145.379 202.401C136.666 181.518 136.437 163.642 136.437 158.308C136.437 144.99 138.95 134.451 140.256 128.956C142.671 118.708 145.869 110.53 146.913 107.976C147.729 105.972 148.447 104.323 148.969 103.127C145.934 105.163 142.018 107.911 137.514 111.273C134.381 113.601 125.342 120.389 114.572 130.41C103.444 140.787 92.9025 151.714 83.4058 163.642C73.0279 176.702 63.5638 190.311 55.6661 204.955C47.5074 220.116 40.7846 235.892 35.8894 252.443C30.831 269.576 28.0244 287.032 26.4905 304.747C26.3926 306.072 26.4905 307.398 26.4905 308.885H120.577C121.556 281.472 125.766 254.899 134.545 228.618C138.755 234.114 142.964 239.609 147.207 245.105C146.848 246.43 146.293 248.596 145.64 251.311C143.421 260.654 140.093 276.849 138.722 297.538C138.526 300.253 138.33 304.262 138.2 309.143C138.298 309.143 142.671 309.143 142.769 309.143C169.66 309.143 206.537 309.143 232.253 309.111C244.263 314.477 256.273 319.843 268.25 325.177C268.413 341.825 269.686 361.124 273.08 382.363C276.506 403.86 281.402 422.803 286.493 438.837C288.157 438.675 290.474 438.449 292.269 438.255C323.762 435.152 330.55 434.667 333.976 434.473C338.676 434.182 340.014 434.117 345.562 433.762C352.252 433.341 358.942 432.759 365.632 432.501C376.989 432.081 386.062 431.887 393.666 431.79C394.449 431.79 395.101 431.79 395.428 431.79C395.493 414.495 395.591 397.2 395.656 379.906C401.367 384.302 407.111 388.699 412.822 393.095V431.79C423.298 432.242 433.415 432.695 443.532 433.115C445.229 438.675 446.958 444.268 448.655 449.828C442.585 449.634 436.548 449.44 430.478 449.246C424.506 449.181 418.501 449.117 412.529 449.084V531.678H395.232V450.895C394.449 450.119 394.025 449.699 393.209 448.923C383.255 449.084 374.737 449.343 368.08 449.569C360.15 449.86 351.664 450.248 340.438 450.862C334.662 451.186 328.885 451.67 323.109 452.123C315.179 452.77 307.248 453.384 299.351 454.127C297.36 454.321 295.402 454.806 292.922 455.226C295.728 463.276 299.09 470.775 302.908 478.017C306.726 485.322 310.838 492.499 315.342 499.417C319.813 506.302 324.61 513.091 329.864 519.394C335.086 525.698 341.091 531.387 347.063 537.691C340.797 539.307 335.119 540.794 328.787 542.411H328.82ZM120.61 325.791H26.3926C27.1759 351.976 32.4301 376.996 41.6658 401.08C54.1649 433.729 73.0605 462.467 97.2756 488.523C104.553 486.551 111.08 482.478 118.162 479.859C125.178 477.273 132.13 474.461 139.179 471.907C146.293 469.321 153.505 466.929 161.24 464.213C148.741 442.942 138.755 420.863 131.966 397.524C125.178 374.216 121.295 350.392 120.61 325.824V325.791ZM1054.13 304.973C1052.5 256.677 1038.99 212.423 1013.96 171.627C1006.25 173.405 998.651 175.215 991.112 176.96C989.219 177.413 977.373 180.096 968.529 181.971C957.988 184.234 942.421 187.305 921.926 190.505C922.09 191.087 922.416 192.057 922.775 193.253C922.775 193.253 924.798 199.815 926.332 205.246C929.922 218.144 932.892 231.172 934.948 244.393C936.025 251.376 937.102 258.391 938.015 265.406C938.635 270.384 938.896 274.069 939.451 280.858C939.941 286.806 940.561 295.049 941.181 304.941H1054.13V304.973ZM269.686 440.647C264.138 421.639 259.308 402.955 256.24 383.882C253.14 364.648 251.802 345.252 250.953 325.727H138.167C138.102 327.052 137.971 328.151 137.971 329.283C137.906 340.112 139.538 350.78 141.137 361.48C142.899 373.279 145.804 384.819 149.296 396.231C154.974 414.754 162.513 432.501 172.075 449.408C173.935 452.705 176.056 455.905 178.243 459.461C208.43 451.444 238.65 445.108 269.718 440.679L269.686 440.647ZM1031.16 166.26C1036.61 177.348 1042.06 188.178 1047.24 199.136C1052.47 210.16 1056.64 221.636 1059.81 233.37C1062.97 245.072 1065.78 256.936 1067.74 268.897C1069.7 280.825 1070.38 292.915 1071.66 304.941H1166.17C1165.38 279.565 1159.44 255.546 1150.31 232.303C1137.19 198.91 1117.25 169.752 1092.31 143.826C1091.86 143.794 1091.3 143.567 1090.94 143.729C1071.39 152.004 1051.78 159.989 1031.12 166.293L1031.16 166.26Z" fill="#E4E8EA"/>
</svg>
